<!--?xml version="1.0" encoding="utf-8"?-->
<!-- Generator: Adobe Illustrator 18.1.1, SVG Export Plug-In . SVG Version: 6.00 Build 0)  -->

<svg version="1.1" id="_x31_0" xmlns="http://www.w3.org/2000/svg" xmlns:xlink="http://www.w3.org/1999/xlink" x="0px" y="0px" viewBox="0 0 512 512" style="width: 16px; height: 16px; opacity: 1;" xml:space="preserve">
<style type="text/css">
	.st0{fill:#374149;}
</style>
<g>
	<path class="st0" d="M411.384,417.421v-0.22l-5.818,5.818c-10.394,10.394-23.503,17.378-38.011,20.17
		c-4.575,0.932-9.31,1.398-13.962,1.398c-2.997,0-5.989-0.235-8.914-0.598c-0.057-0.011-0.11-0.011-0.162-0.023l-0.004,0.012
		c-0.049-0.008-0.102-0.004-0.151-0.012v1.008H91.384V67.026h252.978v42.508l-0.023,5.59c0.008,0,0.015,0,0.023-0.003v0.155
		c3.022-0.386,6.125-0.622,9.231-0.622c19.625,0,38.086,7.606,51.973,21.493l3.356,3.352l2.307,2.466v-0.158l0.155,0.158V0H24.362
		v510.284l-0.004,1.561h0.004V512h387.022v-55.553l0.11-39.133L411.384,417.421z" style="fill: rgb(75, 75, 75);"></path>
	<path class="st0" d="M475.308,249.792l-91.693-91.694c-7.993-7.989-18.697-12.413-30.022-12.413c-3.106,0-6.209,0.31-9.231,1.087
		c-7.838,1.629-15.05,5.587-20.792,11.326c-3.102,3.026-5.662,6.519-7.602,10.318c-1.318,2.405-2.33,4.966-3.102,7.678
		c-1.166,3.879-1.784,7.993-1.784,12.106c0,4.03,0.618,8.144,1.784,12.098c1.94,6.75,5.663,12.954,10.705,17.921l11.076,11.075
		l7.621,7.777H217.369c-23.507,0-42.511,19.083-42.511,42.511c0,23.428,19.004,42.511,42.511,42.511h73.307l51.636,0.11
		l-18.742,18.738c-3.102,3.03-5.662,6.519-7.602,10.318c-1.318,2.409-2.33,4.966-3.102,7.682c-1.166,3.878-1.784,7.993-1.784,12.098
		c0,4.038,0.618,8.148,1.784,12.106c1.94,6.75,5.663,12.954,10.705,17.916c4.034,4.038,8.766,7.216,14.042,9.311
		c2.17,0.932,4.5,1.629,6.75,2.094c0.386,0.155,0.697,0.231,1.083,0.31c2.716,0.466,5.432,0.777,8.148,0.777
		c2.712,0,5.428-0.31,8.068-0.777c8.378-1.629,15.977-5.662,21.954-11.716l27.769-27.772l63.924-63.842
		c7.989-7.992,12.334-18.621,12.334-29.867S483.297,257.708,475.308,249.792z" style="fill: rgb(75, 75, 75);"></path>
</g>
</svg>
